<?xml version="1.0" standalone="no"?>
<!DOCTYPE svg PUBLIC "-//W3C//DTD SVG 20010904//EN"
 "http://www.w3.org/TR/2001/REC-SVG-20010904/DTD/svg10.dtd">
<svg version="1.0" xmlns="http://www.w3.org/2000/svg"
 width="1200.000000pt" height="370.000000pt" viewBox="0 0 1200.000000 370.000000"
 preserveAspectRatio="xMidYMid meet">

<g transform="translate(0.000000,370.000000) scale(0.100000,-0.100000)"
fill="#000000" stroke="none">
<path d="M0 1850 l0 -1850 6000 0 6000 0 0 1850 0 1850 -6000 0 -6000 0 0
-1850z m4965 439 c36 -9 51 -9 70 1 21 11 28 10 52 -6 33 -22 63 -28 63 -13 0
5 -5 7 -11 3 -7 -4 -10 -1 -7 7 3 8 12 15 21 17 13 3 17 -4 17 -32 0 -23 11
-51 31 -81 29 -42 34 -46 68 -44 55 4 60 -3 57 -76 -3 -51 -9 -69 -28 -90 -26
-28 -129 -195 -174 -282 -32 -63 -39 -103 -18 -103 9 0 13 4 10 9 -3 5 6 12
21 16 16 3 30 10 33 15 8 13 128 70 147 70 14 0 15 -2 4 -9 -10 -7 -7 -9 11
-8 14 1 24 7 21 13 -2 6 14 19 37 30 22 10 40 25 40 32 0 6 3 12 8 12 4 0 15
14 24 30 17 30 48 41 48 17 0 -8 7 -14 15 -14 10 0 13 6 9 19 -7 22 13 24 43
3 21 -14 21 -16 6 -55 -9 -22 -23 -41 -32 -41 -31 -2 -37 -5 -85 -37 -28 -17
-55 -32 -60 -32 -6 0 -5 -4 2 -8 14 -10 -65 -58 -87 -54 -7 2 -11 0 -8 -5 7
-11 -114 -100 -171 -125 -44 -20 -48 -20 -75 -4 -16 9 -35 16 -43 16 -8 0 -17
7 -20 15 -4 10 -13 13 -24 10 -10 -3 -21 -1 -25 5 -3 5 -19 10 -36 10 -26 0
-34 9 -30 33 2 10 -27 9 -50 -3 -31 -17 -23 -33 14 -26 23 4 28 3 17 -4 -8 -5
-28 -10 -43 -10 -25 0 -27 2 -17 20 6 11 8 20 5 20 -17 0 -106 -53 -134 -79
-18 -17 -36 -29 -40 -26 -4 2 -34 -6 -65 -19 -64 -26 -110 -23 -149 11 -12 10
-29 25 -39 34 -18 16 -50 104 -40 113 2 3 1 11 -5 18 -10 14 -10 22 1 108 4
30 9 74 12 98 3 24 9 55 15 69 5 15 9 94 8 176 0 97 3 153 10 160 6 6 11 17
11 23 0 7 5 16 10 19 7 4 9 -2 4 -19 -8 -33 11 -35 43 -4 20 19 23 19 23 4 0
-15 8 -17 73 -11 46 4 84 14 106 28 19 11 45 22 57 23 13 1 30 7 39 11 24 14
158 15 210 2z m935 -444 l0 -455 -25 0 -25 0 0 455 0 455 25 0 25 0 0 -455z
m1031 368 c82 -41 152 -110 192 -193 30 -60 32 -72 32 -165 0 -93 -2 -105 -32
-165 -41 -83 -110 -152 -193 -193 -60 -30 -72 -32 -165 -32 -93 0 -105 2 -165
32 -83 41 -152 110 -193 193 -30 60 -32 72 -32 165 0 93 2 105 32 165 50 103
140 182 246 216 26 9 74 13 128 11 73 -3 96 -8 150 -34z m-2148 -710 c-7 -2
-19 -2 -25 0 -7 3 -2 5 12 5 14 0 19 -2 13 -5z m-129 -575 c15 -25 -3 -52 -38
-56 -20 -3 -26 -9 -26 -28 0 -15 -6 -24 -15 -24 -12 0 -15 13 -15 58 0 32 3
62 7 66 13 13 76 1 87 -16z m116 12 c0 -5 -4 -10 -10 -10 -5 0 -10 5 -10 10 0
6 5 10 10 10 6 0 10 -4 10 -10z m1300 -11 c0 -15 5 -19 15 -15 9 3 21 -4 31
-20 24 -36 6 -74 -36 -74 l-30 0 0 65 c0 37 4 65 10 65 6 0 10 -9 10 -21z
m249 -21 l17 -42 17 42 c24 60 37 52 37 -23 0 -37 -4 -65 -10 -65 -5 0 -10 17
-10 38 l-1 37 -14 -32 c-8 -18 -16 -33 -19 -33 -3 0 -12 12 -20 28 l-15 27 -1
-32 c0 -18 -4 -33 -10 -33 -6 0 -10 28 -10 65 0 76 13 83 39 23z m401 32 c0
-5 -4 -10 -10 -10 -5 0 -10 5 -10 10 0 6 5 10 10 10 6 0 10 -4 10 -10z m200
-45 c0 -54 0 -55 30 -55 17 0 30 -4 30 -10 0 -5 -20 -10 -45 -10 l-45 0 0 58
c0 32 3 62 7 65 16 17 23 3 23 -48z m-1909 33 c6 -84 4 -108 -11 -106 -18 4
-30 74 -18 101 10 20 28 23 29 5z m-273 -23 c3 -3 -4 -8 -16 -12 -17 -4 -22
-13 -22 -39 0 -24 -5 -34 -15 -34 -11 0 -15 11 -15 43 0 24 2 46 5 49 7 7 55
2 63 -7z m32 -35 c0 -27 -4 -50 -10 -50 -11 0 -14 83 -3 93 12 12 13 8 13 -43z
m45 18 l14 -33 11 33 c11 28 30 45 30 25 0 -17 -34 -93 -41 -93 -10 0 -39 65
-39 86 0 23 10 16 25 -18z m129 16 c9 -8 16 -31 16 -50 0 -35 -1 -35 -37 -32
-30 2 -38 7 -38 23 0 11 11 25 25 32 24 12 25 13 3 13 -25 0 -31 15 -10 23 20
9 25 8 41 -9z m168 -14 c4 -30 0 -35 -27 -41 l-30 -7 28 -1 c15 0 27 -6 27
-12 0 -6 -14 -9 -32 -7 -30 3 -33 7 -36 38 -4 41 20 65 49 49 11 -5 20 -14 21
-19z m136 15 c3 -3 -4 -8 -16 -12 -17 -4 -22 -13 -22 -39 0 -24 -5 -34 -15
-34 -11 0 -15 11 -15 43 0 24 2 46 5 49 7 7 55 2 63 -7z m84 -15 c4 -30 0 -35
-27 -41 l-30 -7 28 -1 c15 0 27 -6 27 -12 0 -6 -14 -9 -32 -7 -30 3 -33 7 -36
38 -4 41 20 65 49 49 11 -5 20 -14 21 -19z m89 20 c23 0 6 -20 -18 -21 l-28
-1 28 -10 c21 -7 27 -16 25 -32 -2 -16 -10 -21 -35 -21 -18 0 -33 5 -33 10 1
6 12 8 27 7 16 -3 23 0 19 7 -4 6 -15 11 -26 11 -10 0 -20 7 -24 15 -7 19 22
48 41 41 8 -3 19 -6 24 -6z m107 -39 c5 -31 -16 -53 -47 -49 -22 2 -27 9 -29
38 -5 44 21 67 52 46 12 -7 22 -23 24 -35z m42 3 c0 -24 5 -34 15 -34 10 0 15
10 15 34 0 19 5 38 10 41 6 4 10 -13 10 -44 0 -49 -1 -51 -28 -51 -15 0 -33 5
-40 12 -13 13 -17 70 -6 81 13 13 24 -5 24 -39z m138 31 c3 -3 -4 -8 -16 -12
-17 -4 -22 -13 -22 -39 0 -24 -5 -34 -15 -34 -11 0 -15 11 -15 43 0 24 2 46 5
49 7 7 55 2 63 -7z m66 9 c25 -9 19 -24 -9 -24 -20 0 -25 -5 -25 -25 0 -20 5
-25 25 -25 14 0 25 -5 25 -11 0 -6 -14 -9 -32 -7 -30 3 -33 7 -36 38 -3 24 2
38 14 47 21 15 18 15 38 7z m108 -24 c4 -30 0 -35 -27 -41 l-30 -7 28 -1 c15
0 27 -6 27 -12 0 -6 -14 -9 -32 -7 -30 3 -33 7 -36 38 -4 41 20 65 49 49 11
-5 20 -14 21 -19z m89 20 c23 0 6 -20 -18 -21 l-28 -1 28 -10 c21 -7 27 -16
25 -32 -2 -16 -10 -21 -35 -21 -18 0 -33 5 -33 10 1 6 12 8 27 7 16 -3 23 0
19 7 -4 6 -15 11 -26 11 -10 0 -20 7 -24 15 -7 19 22 48 41 41 8 -3 19 -6 24
-6z m191 -22 l12 -33 13 33 c23 57 33 25 11 -36 -26 -69 -34 -80 -50 -64 -9 9
-9 12 0 12 16 0 15 33 -2 75 -12 29 -12 45 1 45 2 0 9 -15 15 -32z m309 22
c14 -8 19 -21 19 -50 0 -39 -1 -40 -35 -40 -57 0 -58 52 -2 63 18 4 17 5 -5 6
-37 1 -36 21 0 30 2 1 12 -4 23 -9z m93 4 c25 -10 19 -24 -11 -25 -23 -1 -24
-2 -6 -6 55 -11 56 -66 1 -61 -18 2 -32 8 -30 13 2 6 15 9 30 8 26 -2 26 -2
-5 12 -36 17 -42 39 -15 54 21 13 17 12 36 5z m107 -4 c23 0 6 -20 -18 -21
l-28 -1 28 -10 c21 -7 27 -16 25 -32 -2 -16 -10 -21 -35 -21 -18 0 -33 5 -33
10 1 6 12 8 27 7 16 -3 23 0 19 7 -4 6 -15 11 -26 11 -10 0 -20 7 -24 15 -7
19 22 48 41 41 8 -3 19 -6 24 -6z m49 -40 c0 -27 -4 -50 -10 -50 -11 0 -14 83
-3 93 12 12 13 8 13 -43z m96 25 c19 -26 18 -75 -1 -75 -10 0 -15 11 -15 35 0
24 -5 35 -15 35 -10 0 -15 -11 -15 -35 0 -19 -4 -35 -10 -35 -5 0 -10 22 -10
48 0 45 1 48 26 47 15 -1 33 -10 40 -20z m204 -65 c0 -5 -7 -10 -15 -10 -8 0
-15 5 -15 10 0 6 7 10 15 10 8 0 15 -4 15 -10z"/>
<path d="M4540 2199 c0 -5 5 -7 10 -4 6 3 10 8 10 11 0 2 -4 4 -10 4 -5 0 -10
-5 -10 -11z"/>
<path d="M4400 2184 c0 -14 3 -14 15 -4 8 7 15 14 15 16 0 2 -7 4 -15 4 -8 0
-15 -7 -15 -16z"/>
<path d="M4423 2165 c-32 -38 -33 -42 -33 -133 0 -51 4 -91 8 -88 5 3 26 47
47 98 21 51 47 99 57 106 10 7 18 20 18 29 0 15 -2 14 -18 0 -25 -23 -40 -21
-44 5 -3 21 -6 19 -35 -17z"/>
<path d="M4470 2189 c0 -5 5 -7 10 -4 6 3 10 8 10 11 0 2 -4 4 -10 4 -5 0 -10
-5 -10 -11z"/>
<path d="M4756 2144 c-22 -8 -47 -21 -56 -29 -9 -8 -22 -15 -28 -15 -7 0 -12
-4 -12 -10 0 -5 23 -10 51 -10 33 0 48 4 43 11 -3 6 6 24 22 40 15 16 26 29
23 28 -2 0 -22 -7 -43 -15z"/>
<path d="M5017 2116 c-10 -27 -8 -75 4 -98 15 -29 6 -32 -49 -15 l-50 14 -26
-29 c-29 -33 -51 -33 -50 1 0 11 -3 21 -8 21 -4 0 -8 -6 -8 -14 0 -8 -5 -18
-11 -22 -8 -4 -9 0 -4 15 4 13 2 21 -5 21 -6 0 -9 4 -5 9 3 6 -3 9 -13 8 -17
-1 -19 -10 -21 -72 -2 -75 29 -220 53 -243 11 -11 20 -9 52 9 21 13 41 24 43
25 2 2 0 23 -3 48 -6 40 -10 45 -42 53 -59 14 -46 31 37 47 19 4 29 15 39 46
11 32 18 40 34 38 16 -2 22 -12 24 -35 3 -28 7 -33 30 -33 26 0 28 4 43 83 9
45 20 90 24 100 7 16 3 18 -26 15 -21 -2 -38 3 -45 11 -9 12 -12 11 -17 -3z"/>
<path d="M4914 2096 c-33 -15 -57 -50 -26 -39 23 9 82 44 82 49 0 8 -25 3 -56
-10z"/>
<path d="M4973 2088 c-7 -8 -10 -18 -6 -21 6 -7 -11 -11 -34 -8 -25 3 -1 -27
25 -32 15 -3 28 -4 30 -2 2 2 2 20 0 41 -2 31 -5 35 -15 22z"/>
<path d="M4628 2053 c-7 -9 4 -10 45 -6 53 5 55 5 65 -23 l10 -29 1 27 c1 14
7 28 14 31 6 2 -19 6 -56 8 -45 3 -72 0 -79 -8z"/>
<path d="M5100 2013 c-6 -32 -14 -68 -17 -80 -8 -34 13 -28 34 10 21 36 25
118 6 124 -7 3 -16 -18 -23 -54z"/>
<path d="M4625 2019 c-40 -11 -64 -65 -37 -85 15 -11 15 -16 -11 -65 -15 -29
-27 -48 -27 -41 0 10 -4 10 -19 0 -22 -13 -51 -114 -51 -176 0 -43 35 -105 63
-110 9 -2 35 4 56 14 30 13 40 24 43 46 4 27 2 29 -19 23 -13 -3 -23 -1 -23 5
0 5 5 10 10 10 15 0 73 97 93 156 17 51 24 185 11 218 -7 17 -41 19 -89 5z"/>
<path d="M4870 2009 c0 -5 5 -7 10 -4 6 3 10 8 10 11 0 2 -4 4 -10 4 -5 0 -10
-5 -10 -11z"/>
<path d="M4742 1955 c0 -16 2 -22 5 -12 2 9 2 23 0 30 -3 6 -5 -1 -5 -18z"/>
<path d="M4951 1891 c-15 -39 -21 -69 -17 -85 9 -36 26 -33 26 4 0 17 4 30 9
30 5 0 11 9 14 19 2 11 15 21 28 24 24 4 24 4 2 6 -19 1 -23 7 -23 31 0 46
-13 36 -39 -29z"/>
<path d="M4575 1910 c-3 -5 -1 -10 4 -10 6 0 11 5 11 10 0 6 -2 10 -4 10 -3 0
-8 -4 -11 -10z"/>
<path d="M4741 1879 c0 -26 -14 -78 -29 -117 l-29 -70 35 10 c19 5 46 7 59 3
22 -5 24 -3 18 12 -13 32 -28 86 -40 148 l-13 60 -1 -46z"/>
<path d="M4541 1882 c-7 -13 -11 -26 -8 -28 8 -8 29 25 25 38 -3 8 -9 4 -17
-10z"/>
<path d="M5018 1863 c-11 -3 -18 -14 -18 -29 l0 -25 35 27 c19 14 35 28 35 30
0 5 -29 3 -52 -3z"/>
<path d="M5475 1730 c-3 -5 1 -10 9 -10 9 0 16 5 16 10 0 6 -4 10 -9 10 -6 0
-13 -4 -16 -10z"/>
<path d="M5430 1704 c0 -17 22 -14 28 4 2 7 -3 12 -12 12 -9 0 -16 -7 -16 -16z"/>
<path d="M4703 1675 c-18 -8 -33 -15 -33 -17 0 -6 86 -1 110 7 24 7 24 8 5 16
-29 11 -46 10 -82 -6z"/>
<path d="M5250 1660 c-9 -6 -10 -10 -3 -10 6 0 15 5 18 10 8 12 4 12 -15 0z"/>
<path d="M4656 1618 c-10 -37 -8 -38 29 -17 49 29 52 39 12 39 -27 0 -36 -5
-41 -22z"/>
<path d="M4925 1618 c-19 -11 -19 -11 0 -19 16 -6 12 -8 -15 -8 -19 -1 -42 -6
-50 -11 -11 -7 -1 -9 33 -8 48 2 59 8 70 41 7 20 -8 22 -38 5z"/>
<path d="M5067 1623 c-4 -3 -7 -13 -7 -22 1 -13 3 -13 11 2 11 19 8 33 -4 20z"/>
<path d="M4401 1604 c0 -11 3 -14 6 -6 3 7 2 16 -1 19 -3 4 -6 -2 -5 -13z"/>
<path d="M4400 1565 c0 -5 5 -17 10 -25 5 -8 10 -10 10 -5 0 6 -5 17 -10 25
-5 8 -10 11 -10 5z"/>
<path d="M4480 1558 c0 -18 27 -44 37 -34 4 4 -3 16 -15 29 -18 17 -22 18 -22
5z"/>
<path d="M4903 1548 c2 -7 15 -13 28 -12 13 1 29 -6 36 -15 7 -9 12 -11 12 -6
0 6 -6 18 -13 28 -15 20 -70 24 -63 5z"/>
<path d="M6655 2197 c-83 -28 -164 -95 -204 -172 -27 -50 -26 -55 4 -55 16 0
38 15 67 46 23 25 65 58 93 72 44 24 61 27 150 27 89 0 105 -3 150 -27 28 -14
70 -47 95 -72 50 -52 97 -65 84 -23 -21 68 -98 148 -179 187 -60 29 -196 38
-260 17z"/>
<path d="M6700 2051 c-59 -18 -140 -71 -140 -92 0 -20 40 -11 89 18 46 28 65
33 116 33 52 0 70 -5 119 -35 51 -31 86 -37 86 -15 0 5 -16 22 -36 38 -61 50
-165 74 -234 53z"/>
<path d="M6683 1944 c-37 -18 -41 -29 -17 -42 11 -6 26 -5 43 4 34 18 79 18
114 -1 21 -11 34 -12 48 -4 24 13 19 22 -25 43 -43 20 -121 20 -163 0z"/>
<path d="M6410 1876 c0 -23 3 -24 35 -19 81 13 189 -50 226 -131 22 -49 24
-134 5 -181 -8 -19 -11 -35 -6 -35 4 0 15 -3 24 -6 11 -4 19 8 31 51 52 176
-77 345 -261 345 -51 0 -54 -2 -54 -24z"/>
<path d="M6983 1887 c-133 -50 -208 -195 -169 -329 14 -50 18 -55 40 -51 23 5
24 6 10 39 -19 46 -17 131 5 180 36 79 143 143 221 132 26 -4 30 -1 30 19 0
21 -4 23 -52 22 -29 0 -67 -6 -85 -12z"/>
<path d="M6733 1864 c-9 -4 -6 -15 10 -40 12 -18 24 -34 27 -34 3 0 14 14 24
31 15 26 16 33 5 40 -15 9 -46 11 -66 3z"/>
<path d="M6422 1802 c-7 -5 -10 -16 -6 -25 4 -13 18 -17 54 -17 53 0 91 -23
115 -70 18 -34 19 -83 4 -111 -10 -20 2 -49 21 -49 14 0 32 58 32 103 0 95
-81 177 -175 177 -18 0 -38 -4 -45 -8z"/>
<path d="M7010 1799 c-32 -13 -78 -56 -96 -91 -17 -34 -18 -128 -1 -152 16
-22 51 -11 42 13 -39 95 17 191 110 191 42 0 64 18 49 41 -7 12 -72 10 -104
-2z"/>
<path d="M6440 1705 c0 -11 48 -81 68 -98 26 -24 42 -14 42 24 0 40 -39 79
-80 79 -16 0 -30 -2 -30 -5z"/>
<path d="M7015 1685 c-25 -24 -34 -78 -17 -89 13 -8 92 86 92 109 0 15 -54 2
-75 -20z"/>
<path d="M4590 910 c0 -13 7 -20 20 -20 13 0 20 7 20 20 0 13 -7 20 -20 20
-13 0 -20 -7 -20 -20z"/>
<path d="M6070 865 c0 -16 6 -25 15 -25 9 0 15 9 15 25 0 16 -6 25 -15 25 -9
0 -15 -9 -15 -25z"/>
<path d="M4905 850 c-3 -5 1 -10 9 -10 9 0 16 5 16 10 0 6 -4 10 -9 10 -6 0
-13 -4 -16 -10z"/>
<path d="M5068 883 c7 -3 16 -2 19 1 4 3 -2 6 -13 5 -11 0 -14 -3 -6 -6z"/>
<path d="M5288 883 c7 -3 16 -2 19 1 4 3 -2 6 -13 5 -11 0 -14 -3 -6 -6z"/>
<path d="M5470 865 c0 -16 6 -25 15 -25 9 0 15 9 15 25 0 16 -6 25 -15 25 -9
0 -15 -9 -15 -25z"/>
<path d="M5838 883 c7 -3 16 -2 19 1 4 3 -2 6 -13 5 -11 0 -14 -3 -6 -6z"/>
<path d="M6440 850 c0 -5 7 -10 15 -10 8 0 15 5 15 10 0 6 -7 10 -15 10 -8 0
-15 -4 -15 -10z"/>
</g>
</svg>
